<svg width="108" height="17" viewBox="0 0 108 17" fill="none" xmlns="http://www.w3.org/2000/svg">
<path d="M6.88055 7.47436L9.21502 7.59744L11.6109 7.47436C12.1024 7.47436 12.5051 7.63162 12.8191 7.94615C13.1331 8.26068 13.2901 8.65727 13.2901 9.1359C13.2901 11.3786 12.6894 13.1701 11.4881 14.5103C10.3003 15.8368 8.74403 16.5 6.81911 16.5C4.8942 16.5 3.27645 15.7205 1.96587 14.1615C0.65529 12.6026 0 10.7085 0 8.47949C0 6.25043 0.675768 4.36325 2.0273 2.81795C3.37884 1.27265 5.08533 0.5 7.14676 0.5C8.47099 0.5 9.67236 0.787179 10.7509 1.36154C11.8294 1.9359 12.3686 2.55812 12.3686 3.22821C12.3686 3.61111 12.2457 3.9188 12 4.15128C11.7543 4.37009 11.4403 4.47949 11.058 4.47949C10.6758 4.47949 10.314 4.37009 9.9727 4.15128C9.6314 3.9188 9.2355 3.68632 8.78498 3.45385C8.33447 3.22137 7.7884 3.10513 7.14676 3.10513C5.91809 3.10513 4.90102 3.63162 4.09556 4.68462C3.30375 5.73761 2.90785 6.99573 2.90785 8.45897C2.90785 9.92222 3.28328 11.2009 4.03413 12.2949C4.79864 13.3752 5.76109 13.9154 6.9215 13.9154C7.79522 13.9154 8.53925 13.5872 9.15358 12.9308C9.76792 12.2607 10.1365 11.3239 10.2594 10.1205C10.1092 10.1068 9.74061 10.1 9.15358 10.1L6.88055 10.2026C6.37543 10.2026 5.96587 10.0795 5.65188 9.83333C5.33788 9.5735 5.18089 9.23846 5.18089 8.82821C5.18089 8.40427 5.33788 8.07607 5.65188 7.84359C5.96587 7.59744 6.37543 7.47436 6.88055 7.47436Z" fill="#1D0A57"/>
<path d="M20.9411 13.6897L23.7466 13.5667C24.2654 13.5667 24.6749 13.6897 24.9753 13.9359C25.2893 14.1684 25.4462 14.4966 25.4462 14.9205C25.4462 15.3444 25.2893 15.6863 24.9753 15.9462C24.6749 16.1923 24.2654 16.3154 23.7466 16.3154L20.9411 16.1923L17.849 16.3154C17.3439 16.3154 16.9207 16.1513 16.5794 15.8231C16.2517 15.4949 16.0879 15.0573 16.0879 14.5103L16.2108 8.39744L16.0469 2.83846C16.0469 1.34786 16.5657 0.602564 17.6032 0.602564C18.6408 0.602564 19.1596 1.34786 19.1596 2.83846L18.9957 8.39744C18.9957 9.09487 19.0435 10.8453 19.1391 13.6487C19.849 13.6761 20.4497 13.6897 20.9411 13.6897Z" fill="#1D0A57"/>
<path d="M37.1744 11.8231C37.1744 13.1496 36.6761 14.2641 35.6796 15.1667C34.683 16.0556 33.3929 16.5 31.8092 16.5C30.5396 16.5 29.3792 16.1991 28.328 15.5974C27.2768 14.9821 26.7512 14.3393 26.7512 13.6692C26.7512 13.3 26.8741 12.9991 27.1198 12.7667C27.3792 12.5205 27.6932 12.3974 28.0618 12.3974C28.4441 12.3974 28.8127 12.5274 29.1676 12.7872C29.5362 13.0333 29.9321 13.2863 30.3553 13.5462C30.7922 13.7923 31.3178 13.9154 31.9321 13.9154C32.5601 13.9154 33.1062 13.7308 33.5703 13.3615C34.0482 12.9786 34.2871 12.4658 34.2871 11.8231C34.2871 11.1393 33.7 10.4487 32.526 9.75128C32.2939 9.61453 31.9116 9.39573 31.3792 9.09487C30.8604 8.79402 30.4645 8.56154 30.1915 8.39744C29.9185 8.23333 29.5567 7.98718 29.1062 7.65897C28.6693 7.31709 28.3348 7.00256 28.1028 6.71538C27.5294 6.00427 27.2427 5.23846 27.2427 4.41795C27.2427 3.35128 27.7 2.43504 28.6147 1.66923C29.543 0.889744 30.6284 0.5 31.8707 0.5C33.1267 0.5 34.1983 0.739316 35.0857 1.21795C35.9731 1.69658 36.4168 2.23675 36.4168 2.83846C36.4168 3.23504 36.2939 3.54274 36.0482 3.76154C35.8024 3.98034 35.4953 4.08974 35.1267 4.08974C34.7581 4.08974 34.2802 3.92564 33.6932 3.59744C33.1062 3.25556 32.5533 3.08461 32.0345 3.08461C31.5294 3.08461 31.0857 3.21453 30.7034 3.47436C30.3348 3.72051 30.1505 4.03504 30.1505 4.41795C30.1505 4.82821 30.4099 5.22479 30.9287 5.60769C31.3383 5.90855 31.8707 6.25043 32.526 6.63333C33.1949 7.01624 33.6727 7.29658 33.9594 7.47436C34.2461 7.63846 34.6284 7.90513 35.1062 8.27436C35.5976 8.64359 35.9662 8.97863 36.212 9.27949C36.4577 9.58034 36.6761 9.95641 36.8673 10.4077C37.0721 10.859 37.1744 11.3308 37.1744 11.8231Z" fill="#1D0A57"/>
<path d="M51.599 11.659C51.599 13.1359 50.9778 14.312 49.7355 15.1872C48.5068 16.0624 46.9642 16.5 45.1075 16.5C43.2645 16.5 41.7969 16.3085 40.7048 15.9256C39.6263 15.5291 39.087 15.0299 39.087 14.4282C39.087 13.7855 39.3874 13.4094 39.9881 13.3C40.029 11.9325 40.0495 10.312 40.0495 8.43846C40.0495 6.55128 40.029 5.08803 39.9881 4.04872C39.4283 3.78889 39.1485 3.4265 39.1485 2.96154C39.1485 2.49658 39.3669 2.10684 39.8038 1.79231C40.2543 1.4641 40.8003 1.21111 41.442 1.03333C42.7253 0.677778 43.8584 0.5 44.8413 0.5C45.8242 0.5 46.698 0.636752 47.4625 0.910256C48.2406 1.17009 48.8481 1.5188 49.285 1.95641C50.1314 2.80427 50.5546 3.70684 50.5546 4.6641C50.5546 5.84017 50.029 6.87265 48.9778 7.76154C49.7423 8.18547 50.3703 8.74615 50.8618 9.44359C51.3532 10.141 51.599 10.8795 51.599 11.659ZM42.9573 13.7718C43.4761 13.8675 44.2065 13.9154 45.1485 13.9154C46.1041 13.9154 46.93 13.7171 47.6263 13.3205C48.3225 12.9103 48.6707 12.3154 48.6707 11.5359C48.6707 10.9615 48.384 10.4761 47.8106 10.0795C47.2509 9.68291 46.6365 9.41624 45.9676 9.27949C45.244 9.47094 44.6365 9.56667 44.1451 9.56667C43.6672 9.56667 43.2372 9.55299 42.8549 9.52564C42.8823 11.9051 42.9164 13.3205 42.9573 13.7718ZM47.7696 4.68462C47.7696 4.27436 47.5239 3.90513 47.0324 3.57692C46.5546 3.24872 45.9061 3.08461 45.087 3.08461C44.2816 3.08461 43.5512 3.16667 42.8959 3.33077V6.71538C43.4147 6.66068 43.8857 6.63333 44.3089 6.63333C44.7457 6.63333 45.2167 6.68803 45.7218 6.79744C46.1451 6.74274 46.5887 6.53077 47.0529 6.16154C47.5307 5.77863 47.7696 5.28632 47.7696 4.68462Z" fill="#1D0A57"/>
<path d="M54.6203 0.684615L58.511 0.807692L62.4018 0.684615C62.9206 0.684615 63.3302 0.807692 63.6305 1.05385C63.9445 1.3 64.1015 1.63504 64.1015 2.05897C64.1015 2.48291 63.9445 2.81795 63.6305 3.0641C63.3302 3.31026 62.9206 3.43333 62.4018 3.43333L60.0878 3.31026C60.0196 5.11539 59.9854 6.87949 59.9854 8.60256L60.1493 14.1821C60.1493 15.659 59.6305 16.3974 58.593 16.3974C57.5554 16.3974 57.0366 15.659 57.0366 14.1821L57.2005 8.60256C57.2005 7.4812 57.1527 5.71709 57.0571 3.31026L54.6203 3.43333C54.1015 3.43333 53.6851 3.31026 53.3711 3.0641C53.0708 2.81795 52.9206 2.48291 52.9206 2.05897C52.9206 1.63504 53.0708 1.3 53.3711 1.05385C53.6851 0.807692 54.1015 0.684615 54.6203 0.684615Z" fill="#1D0A57"/>
<path d="M75.7015 5.07436C75.7015 4.58205 75.5036 4.13077 75.1077 3.72051C74.7118 3.31026 74.1452 3.10513 73.408 3.10513C72.4387 3.10513 71.6128 3.51539 70.9302 4.3359C70.2613 5.15641 69.7903 6.14103 69.5172 7.28974C70.3363 7.4812 71.251 7.57692 72.2613 7.57692C73.2851 7.57692 74.1111 7.35812 74.7391 6.92051C75.3807 6.48291 75.7015 5.86752 75.7015 5.07436ZM78.1384 13.7103C78.1384 14.2436 77.6333 14.8453 76.623 15.5154C75.6128 16.1718 74.5343 16.5 73.3875 16.5C72.2408 16.5 71.251 16.3017 70.4183 15.9051C69.5991 15.4949 68.9234 14.9479 68.391 14.2641C67.2715 12.8556 66.6435 11.194 66.507 9.27949C65.5787 8.91026 65.1145 8.34274 65.1145 7.57692C65.1145 7.19402 65.2374 6.88632 65.4831 6.65385C65.7425 6.40769 66.0565 6.28462 66.4251 6.28462C66.5343 6.28462 66.6572 6.30513 66.7937 6.34615C67.2715 4.65043 68.0838 3.25556 69.2305 2.16154C70.3773 1.05385 71.7152 0.5 73.2442 0.5C74.7869 0.5 76.0633 0.944444 77.0735 1.83333C78.0974 2.70855 78.6094 3.76154 78.6094 4.99231C78.6094 6.2094 78.3022 7.20769 77.6879 7.98718C76.5275 9.4094 74.7322 10.1205 72.3022 10.1205C71.4968 10.1205 70.5616 10.0316 69.4968 9.85385C69.7015 11.0026 70.1316 11.9667 70.7868 12.7462C71.4421 13.5256 72.193 13.9154 73.0394 13.9154C73.9814 13.9154 74.9848 13.594 76.0497 12.9513C76.4046 12.7325 76.7322 12.6231 77.0326 12.6231C77.3329 12.6231 77.5923 12.7256 77.8107 12.9308C78.0292 13.1359 78.1384 13.3957 78.1384 13.7103Z" fill="#1D0A57"/>
<path d="M92.5781 13.7103C92.5781 14.3393 92.0594 14.9615 91.0218 15.5769C89.9843 16.1923 88.7351 16.5 87.2744 16.5C85.2949 16.5 83.6498 15.7205 82.3392 14.1615C81.0286 12.6026 80.3734 10.7085 80.3734 8.47949C80.3734 6.25043 81.0286 4.36325 82.3392 2.81795C83.6635 1.27265 85.3153 0.5 87.2949 0.5C88.5508 0.5 89.6771 0.759829 90.6737 1.27949C91.6839 1.79915 92.1891 2.38718 92.1891 3.04359C92.1891 3.44017 92.0594 3.76154 91.8 4.00769C91.5406 4.24017 91.2061 4.35641 90.7966 4.35641C90.4007 4.35641 89.9024 4.15128 89.3017 3.74103C88.701 3.31709 88.0321 3.10513 87.2949 3.10513C86.1344 3.10513 85.172 3.63846 84.4075 4.70513C83.6566 5.75812 83.2812 7.01624 83.2812 8.47949C83.2812 9.92906 83.6566 11.2009 84.4075 12.2949C85.1583 13.3752 86.0867 13.9154 87.1925 13.9154C88.3119 13.9154 89.3631 13.6214 90.346 13.0333C90.7966 12.7598 91.1788 12.6231 91.4928 12.6231C91.8204 12.6231 92.0798 12.7256 92.271 12.9308C92.4757 13.1359 92.5781 13.3957 92.5781 13.7103Z" fill="#1D0A57"/>
<path d="M103.843 6.9L103.72 2.83846C103.72 1.34786 104.232 0.602564 105.256 0.602564C106.294 0.602564 106.812 1.34786 106.812 2.83846C106.812 3.68632 106.765 5.00598 106.669 6.79744C107.079 6.87949 107.399 7.05043 107.631 7.31026C107.877 7.57009 108 7.87778 108 8.23333C108 8.58889 107.884 8.89658 107.652 9.15641C107.42 9.41624 107.092 9.5735 106.669 9.62821L106.812 14.1821C106.812 15.659 106.294 16.3974 105.256 16.3974C104.232 16.3974 103.72 15.659 103.72 14.1821L103.843 9.52564L100.997 9.4641L98.2321 9.52564L98.3754 14.1821C98.3754 15.659 97.8567 16.3974 96.8191 16.3974C95.7816 16.3974 95.2628 15.659 95.2628 14.1821L95.4062 9.62821C94.9829 9.5735 94.6553 9.41624 94.4232 9.15641C94.2048 8.88291 94.0956 8.57521 94.0956 8.23333C94.0956 7.87778 94.2116 7.57009 94.4437 7.31026C94.6894 7.05043 95.0102 6.87949 95.4062 6.79744L95.2833 2.85897C95.2833 1.36838 95.802 0.623077 96.8396 0.623077C97.8771 0.623077 98.3959 1.36838 98.3959 2.85897C98.3959 3.73419 98.3481 5.0812 98.2526 6.9L100.997 6.96154C101.925 6.96154 102.874 6.94103 103.843 6.9Z" fill="#1D0A57"/>
</svg>
